# xmcd CD database file
#
# Track frame offsets:
#	150
#	13070
#	31122
#	43167
#	59640
#	73080
#	88940
#	106422
#	119765
#	133425
#	149152
#
# Disc length: 2227 seconds
#
# Revision: 4
# Processed by: cddbd v1.4PL0 Copyright (c) Steve Scherf et al.
# Submitted via: CDex 1.50
#
DISCID=b508b10b
DTITLE=Chris LeDoux - Cowboy
DYEAR=2000
DGENRE=Country
TTITLE0=He Rides The Wild Horses
TTITLE1=Silence On The Line
TTITLE2=Ten Seconds In The Saddle
TTITLE3=Our First Year
TTITLE4=I'm Country
TTITLE5=Blue Eyes And Freckles
TTITLE6=Hippies In Calgary
TTITLE7=A Cowboy's Got To Ride
TTITLE8=The Yellow Stud
TTITLE9=Running Through The Rain
TTITLE10=Song Of Wyoming
EXTD=YEAR: 2000
EXTT0=
EXTT1=
EXTT2=
EXTT3=
EXTT4=
EXTT5=
EXTT6=
EXTT7=
EXTT8=
EXTT9=
EXTT10=
PLAYORDER=
